{"title":"Future Worm 2016 S01E01 1080p Web-DL H 264-RnC","uid":15827253,"size":863990731,"categoryP":"video","categoryS":"hd___tv_shows","magnet":"?xt=urn:btih:c23c2eddf0508c894caf352f581c03d563358e55&amp;dn=Future+Worm+2016+S01E01+1080p+Web-DL+H+264-RnC&amp;tr=udp%3A%2F%2Ftracker.leechers-paradise.org%3A6969&amp;tr=udp%3A%2F%2Fzer0day.ch%3A1337&amp;tr=udp%3A%2F%2Fopen.demonii.com%3A1337&amp;tr=udp%3A%2F%2Ftracker.coppersurfer.tk%3A6969&amp;tr=udp%3A%2F%2Fexodus.desync.com%3A6969","seeders":1,"leechers":0,"uploader":"Anon_up","files":1,"time":1473869477,"description":"i.imgur.com/B4DkV45.jpg\r\n\r\nGeneral\r\nComplete name               : Future-Worm.2016.S01E01.Long.Live.Captain.Cakerz_Healin.1080p.Web-DL.AAC2.0.H.264-RnC.mkv\r\nFormat                      : Matroska\r\nFile size                   : 824 MiB\r\nDuration                    : 22 min\r\nOverall bit rate            : 5 198 kb/s\r\n\r\n\r\nVideo\r\nID                          : 1\r\nFormat                      : AVC\r\nFormat/Info                 : Advanced Video Codec\r\nFormat profile              :   \r\nFormat settings, CABAC      : Yes\r\nFormat settings, ReFrames   : 4 frames\r\nCodec ID                    : V_MPEG4/ISO/AVC\r\nDuration                    : 22 min\r\nBit rate                    : 5 071 kb/s\r\nWidth                       : 1 920 pixels\r\nHeight                      : 1 080 pixels\r\nDisplay aspect ratio        : 16:9\r\nFrame rate mode             : Constant\r\nFrame rate                  : 23.976 (23976/1000) FPS\r\nColor space                 : YUV\r\nChroma subsampling          : 4:2:0\r\nBit depth                   : 8 bits\r\nScan type                   : Progressive\r\nBits/(Pixel*Frame)          : 0.102\r\nStream size                 : 804 MiB (98%)\r\nLanguage                    : English\r\nDefault                     : Yes\r\nForced                      : No\r\nColor range                 : Limited\r\nColor primaries             : BT.709\r\nTransfer characteristics    : BT.709\r\nMatrix coefficients         : BT.709\r\n\r\nAudio\r\nID                          : 2\r\nFormat                      : AAC\r\nFormat/Info                 : Advanced Audio Codec\r\nFormat profile              : LC\r\nCodec ID                    : A_AAC\r\nDuration                    : 22 min\r\nBit rate                    : 125 kb/s\r\nChannel(s)                  : 2 channels\r\nChannel positions           : Front: L R\r\nSampling rate               : 48.0 kHz\r\nFrame rate                  : 46.875 FPS (1024 spf)\r\nCompression mode            : Lossy\r\nStream size                 : 19.8 MiB (2%)\r\nLanguage                    : English\r\nDefault                     : Yes\r\nForced                      : No\r\n\r\nText\r\nID                          : 3\r\nFormat                      : UTF-8\r\nCodec ID                    : S_TEXT/UTF8\r\nCodec ID/Info               : UTF-8 Plain Text\r\nDuration                    : 21 min\r\nBit rate                    : 134 b/s\r\nCount of elements           : 540\r\nStream size                 : 21.4 KiB (0%)\r\nLanguage                    : English\r\nDefault                     : Yes\r\nForced                      : No","torrent":{"xt":"urn:btih:c23c2eddf0508c894caf352f581c03d563358e55","amp;dn":"Future+Worm+2016+S01E01+1080p+Web-DL+H+264-RnC","amp;tr":["udp%3A%2F%2Ftracker.leechers-paradise.org%3A6969","udp%3A%2F%2Fzer0day.ch%3A1337","udp%3A%2F%2Fopen.demonii.com%3A1337","udp%3A%2F%2Ftracker.coppersurfer.tk%3A6969","udp%3A%2F%2Fexodus.desync.com%3A6969"],"infoHash":"c23c2eddf0508c894caf352f581c03d563358e55","infoHashBuffer":{"type":"Buffer","data":[194,60,46,221,240,80,140,137,76,175,53,47,88,28,3,213,99,53,142,85]},"announce":[],"urlList":[]}}